<?xml version="1.0" encoding="UTF-8" standalone="no"?>
<!-- Created with Inkscape (http://www.inkscape.org/) -->

<svg
   width="200"
   height="200"
   viewBox="0 0 200 200"
   version="1.1"
   id="svg1"
   xml:space="preserve"
   inkscape:version="1.3.2 (091e20e, 2023-11-25, custom)"
   sodipodi:docname="SnoezelenLogo.svg"
   xmlns:inkscape="http://www.inkscape.org/namespaces/inkscape"
   xmlns:sodipodi="http://sodipodi.sourceforge.net/DTD/sodipodi-0.dtd"
   xmlns:xlink="http://www.w3.org/1999/xlink"
   xmlns="http://www.w3.org/2000/svg"
   xmlns:svg="http://www.w3.org/2000/svg"><sodipodi:namedview
     id="namedview1"
     pagecolor="#505050"
     bordercolor="#eeeeee"
     borderopacity="1"
     inkscape:showpageshadow="0"
     inkscape:pageopacity="0"
     inkscape:pagecheckerboard="0"
     inkscape:deskcolor="#505050"
     inkscape:document-units="mm"
     inkscape:zoom="1.4770342"
     inkscape:cx="19.295423"
     inkscape:cy="133.7139"
     inkscape:window-width="1920"
     inkscape:window-height="1106"
     inkscape:window-x="-11"
     inkscape:window-y="-11"
     inkscape:window-maximized="1"
     inkscape:current-layer="layer1" /><defs
     id="defs1"><linearGradient
       id="linearGradient4"
       inkscape:collect="always"><stop
         style="stop-color:#5000ff;stop-opacity:1;"
         offset="0"
         id="stop5" /><stop
         style="stop-color:#ff002b;stop-opacity:1;"
         offset="1"
         id="stop4" /></linearGradient><linearGradient
       inkscape:collect="always"
       xlink:href="#linearGradient4"
       id="linearGradient3"
       x1="28.46875"
       y1="169.5293"
       x2="157.51172"
       y2="171.94531"
       gradientUnits="userSpaceOnUse"
       gradientTransform="rotate(-142.09078,100,100)" /><linearGradient
       inkscape:collect="always"
       xlink:href="#linearGradient4"
       id="linearGradient7"
       x1="122.19672"
       y1="148.53311"
       x2="191.71289"
       y2="148.53311"
       gradientUnits="userSpaceOnUse"
       gradientTransform="rotate(-142.09078,100,100)" /><linearGradient
       inkscape:collect="always"
       xlink:href="#linearGradient4"
       id="linearGradient9"
       x1="58.708946"
       y1="135.27631"
       x2="125.63914"
       y2="135.27631"
       gradientUnits="userSpaceOnUse"
       gradientTransform="rotate(-142.09078,100,100)" /><linearGradient
       inkscape:collect="always"
       xlink:href="#linearGradient4"
       id="linearGradient11"
       x1="22.772732"
       y1="140.28197"
       x2="100.64291"
       y2="140.28197"
       gradientUnits="userSpaceOnUse"
       gradientTransform="rotate(-142.09078,100,100)" /><linearGradient
       inkscape:collect="always"
       xlink:href="#linearGradient4"
       id="linearGradient13"
       x1="0"
       y1="114.44629"
       x2="78.457031"
       y2="114.44629"
       gradientUnits="userSpaceOnUse"
       gradientTransform="rotate(-142.09078,100,100)" /><linearGradient
       inkscape:collect="always"
       xlink:href="#linearGradient4"
       id="linearGradient15"
       x1="0.69726562"
       y1="52.134766"
       x2="69.056641"
       y2="52.134766"
       gradientUnits="userSpaceOnUse"
       gradientTransform="rotate(-124.7481,100,100)" /><linearGradient
       inkscape:collect="always"
       xlink:href="#linearGradient4"
       id="linearGradient17"
       x1="46.444756"
       y1="41.040726"
       x2="130.17455"
       y2="41.040726"
       gradientUnits="userSpaceOnUse"
       gradientTransform="rotate(-142.09078,100,100)" /><linearGradient
       inkscape:collect="always"
       xlink:href="#linearGradient18"
       id="linearGradient22"
       x1="98.858665"
       y1="82.91687"
       x2="111.10952"
       y2="64.410461"
       gradientUnits="userSpaceOnUse"
       gradientTransform="rotate(-85.553137,99.913939,90.979474)" /><linearGradient
       id="linearGradient18"
       inkscape:collect="always"><stop
         style="stop-color:#0015ff;stop-opacity:1;"
         offset="0"
         id="stop18" /><stop
         style="stop-color:#00ff23;stop-opacity:1;"
         offset="1"
         id="stop19" /></linearGradient><radialGradient
       inkscape:collect="always"
       xlink:href="#linearGradient18"
       id="radialGradient24"
       cx="57.668388"
       cy="-22.066185"
       fx="57.668388"
       fy="-22.066185"
       r="37.40604"
       gradientUnits="userSpaceOnUse"
       gradientTransform="matrix(2.6558216,-0.00517585,0.00443484,2.2756392,-182.40315,148.70282)" /></defs><g
     inkscape:label="Layer 1"
     inkscape:groupmode="layer"
     id="layer1"><path
       id="path1-7"
       style="fill:url(#linearGradient15);stroke-width:3.103"
       d="m 39.647524,179.52434 c 31.597134,23.89679 74.322306,26.88782 108.940766,7.62653 2.9513,-5.33181 2.60329,-11.91623 -0.89692,-16.97024 -5.06867,-7.30673 -15.03685,-9.16554 -22.26467,-4.15178 -2.34344,1.62636 -17.13915,17.73086 -28.502528,20.64877 -18.635941,4.78538 -57.276648,-7.15328 -57.276648,-7.15328 z"
       sodipodi:nodetypes="ccccac" /><path
       id="path1-0"
       style="fill:url(#linearGradient3);fill-opacity:1;stroke-width:3.103"
       d="m 102.30943,34.700289 c 12.53879,9.539376 18.40553,0.282145 36.25865,2.060513 33.09979,3.297093 60.58867,52.33128 60.58867,52.33128 C 196.27082,62.268943 182.66962,37.749745 161.44122,21.101479 147.04743,9.964361 129.8872,2.9664949 111.80994,0.86196796 106.69101,1.3605978 102.01131,3.8977978 98.828179,7.9003127 92.379083,16.181807 93.937673,28.180406 102.30943,34.700289 Z"
       sodipodi:nodetypes="csccccc" /><path
       id="path1-4"
       style="fill:url(#linearGradient13);stroke-width:3.103"
       d="m 140.68476,191.07717 c 14.97066,-6.60354 28.09224,-16.77973 38.21376,-29.63595 15.89997,-20.56648 23.1661,-46.51634 20.25823,-72.349138 -1.786,-6.472201 -5.6124,-12.218841 -10.91044,-16.385752 -13.64449,-10.625292 -34.78688,-12.73582 -45.29725,0.761204 -10.5107,13.496764 -13.5529,33.535686 2.93122,43.400446 14.10364,8.44021 21.29164,28.75324 14.79926,43.30749 -6.49237,14.55426 -19.99478,30.9017 -19.99478,30.9017 z"
       sodipodi:nodetypes="cccccssc" /><circle
       style="fill:url(#radialGradient24);fill-opacity:1;stroke-width:3.34169"
       id="path22"
       cx="-53.769291"
       cy="127.35413"
       r="40.283428"
       transform="rotate(-69.362417)" /><path
       id="path1-4-1-4"
       style="fill:url(#linearGradient22);stroke-width:0.910967"
       d="m 106.26496,68.048421 c -16.725914,-7.120033 -33.789662,5.087797 -32.94902,14.786431 0.462796,5.055866 2.936083,7.569761 7.937292,7.111948 5.001216,-0.457693 7.344499,-5.588844 6.391676,-9.217307 -1.225559,-4.667078 3.565334,-9.230448 7.986464,-10.761239 4.421128,-1.530791 10.633588,-1.919833 10.633588,-1.919833 z"
       sodipodi:nodetypes="cccssc" /><path
       id="path1-4-1"
       style="fill:url(#linearGradient9);stroke-width:1.61012"
       d="M 151.75482,100.74424 C 152.3673,68.620205 121.07478,48.721169 105.7329,56.511448 c -7.981434,4.101329 -10.466883,9.817545 -6.409866,17.712674 4.056826,7.895224 14.016926,8.343755 19.334606,4.382931 6.83982,-5.094571 17.48751,-0.258599 22.91979,5.976271 5.43228,6.234878 10.17739,16.160916 10.17739,16.160916 z"
       sodipodi:nodetypes="cccssc" /><path
       id="path1-7-1"
       style="fill:url(#linearGradient7);stroke-width:2.89503"
       d="M 138.06561,14.992048 C 104.30717,-0.05713708 60.418505,2.7287433 40.055847,28.680744 c -3.641005,4.640369 -2.455768,13.749556 1.791777,17.603955 6.148378,5.570659 15.599693,5.156283 21.110227,-0.92553 1.786486,-1.972586 11.834141,-19.730699 21.545359,-24.780578 15.92638,-8.281778 53.5624,-5.586543 53.5624,-5.586543 z"
       sodipodi:nodetypes="caccac" /><path
       id="path1-7-5"
       style="fill:url(#linearGradient17);stroke-width:2.40597"
       d="m 32.395172,137.70216 c 15.005841,26.80236 41.953806,43.78299 67.901998,39.85192 5.74178,-0.86986 12.65254,-8.1947 11.73907,-12.8731 -1.32655,-6.76631 -7.82782,-11.18815 -14.520942,-9.87568 -2.170394,0.42559 -17.688863,7.26029 -26.66711,5.79724 -14.724301,-2.39942 -38.453016,-22.90038 -38.453016,-22.90038 z"
       sodipodi:nodetypes="cacsac" /><path
       id="path1-0-9"
       style="fill:url(#linearGradient11);stroke-width:2.40597"
       d="m 134.56825,62.962443 c 0.99335,9.333691 10.6271,9.527668 20.16983,19.649913 17.6923,18.766694 8.83551,61.443804 8.83551,61.443804 31.44488,-45.144779 1.84732,-99.135264 -17.40983,-98.547486 -6.98157,0.213091 -12.3347,10.508167 -11.59551,17.453769 z"
       sodipodi:nodetypes="ascaa" /></g></svg>
